<svg width="124" height="48" viewBox="0 0 124 48" fill="none" xmlns="http://www.w3.org/2000/svg">
<path fill-rule="evenodd" clip-rule="evenodd" d="M17.9007 2.29306C12.8443 1.70735 9.3559 7.13882 6.11113 11.065C3.26354 14.5106 1.14327 18.4024 0.896996 22.8675C0.634979 27.6181 1.49672 32.5655 4.73312 36.0496C8.06676 39.6385 13.0604 41.9061 17.9007 41.1729C22.3392 40.5007 24.3031 35.6266 27.6075 32.585C31.1955 29.2823 37.8801 27.7462 37.7874 22.8675C37.6945 17.9814 30.6396 17.025 27.245 13.513C23.7288 9.87525 22.9237 2.87489 17.9007 2.29306Z" fill="#7E2AEA"/>
<ellipse cx="30.481" cy="39.3176" rx="2.79008" ry="2.79008" fill="#7E2AEA"/>
<circle cx="27.6911" cy="8.36101" r="1.06289" fill="#7E2AEA"/>
<path d="M44.6921 21.7255C44.3822 18.7125 42.9647 15.9218 40.7143 13.8944C38.464 11.8671 35.541 10.7474 32.5121 10.7525C32.0821 10.7526 31.6523 10.7751 31.2246 10.8199C28.213 11.1361 25.4251 12.5563 23.3987 14.8066C21.3722 17.0568 20.2508 19.9778 20.2507 23.006V23.006V40.511H25.5022V33.0714C27.5555 34.4998 29.9977 35.2636 32.499 35.2595C32.929 35.2594 33.3588 35.2369 33.7865 35.1921C35.3869 35.0239 36.9384 34.5422 38.3526 33.7743C39.7668 33.0065 41.0159 31.9676 42.0286 30.717C43.0413 29.4665 43.7977 28.0287 44.2547 26.4857C44.7117 24.9428 44.8604 23.325 44.6921 21.7246V21.7255ZM37.9474 27.4146C37.3706 28.1312 36.6573 28.7262 35.8488 29.1652C35.0404 29.6042 34.1529 29.8785 33.2377 29.9721C32.9923 29.9976 32.7457 30.0104 32.499 30.0106C30.9108 30.0092 29.3703 29.4678 28.1303 28.4754C26.8903 27.4831 26.0245 26.0986 25.6751 24.5494C25.3256 23.0001 25.5132 21.3781 26.2071 19.9495C26.9009 18.5209 28.0599 17.3706 29.4936 16.6874C30.9274 16.0043 32.5508 15.8289 34.0974 16.19C35.644 16.5511 37.0219 17.4272 38.005 18.6746C38.988 19.922 39.5178 21.4665 39.5073 23.0547C39.4969 24.6428 38.9468 26.1803 37.9474 27.4146Z" fill="#151515"/>
<path d="M58.3941 10.7525C57.9641 10.7527 57.5344 10.7752 57.1066 10.8199C53.9861 11.1485 51.1105 12.6618 49.0726 15.0477C47.0347 17.4337 45.9897 20.5105 46.1531 23.6441C46.3165 26.7777 47.6758 29.7291 49.9508 31.8902C52.2258 34.0513 55.2432 35.2572 58.381 35.2595C58.8111 35.2594 59.2408 35.2369 59.6685 35.1922C61.9185 34.9526 64.0587 34.0967 65.8533 32.7187C67.648 31.3407 69.0275 29.4941 69.8398 27.3823H63.854L63.8295 27.4129C63.0627 28.3606 62.0619 29.0918 60.9259 29.534C59.7899 29.9762 58.5581 30.1142 57.3524 29.9342C56.1467 29.7543 55.0089 29.2627 54.0515 28.5081C53.0941 27.7535 52.3503 26.7621 51.8937 25.6318H70.3615C70.7503 23.8427 70.7339 21.9893 70.3136 20.2074C69.8932 18.4255 69.0795 16.7601 67.932 15.3335C66.7846 13.9068 65.3325 12.755 63.6821 11.9623C62.0318 11.1697 60.225 10.7563 58.3941 10.7525V10.7525ZM51.8937 20.3803C52.3717 19.2036 53.1601 18.1786 54.1748 17.4147C55.1895 16.6508 56.3924 16.1766 57.6554 16.0425C57.9008 16.017 58.1474 16.0042 58.3941 16.004C59.789 16.0017 61.1525 16.4173 62.3089 17.1974C63.4652 17.9774 64.3613 19.0861 64.8815 20.3803H51.8937Z" fill="#151515"/>
<path d="M83.3337 10.7525C81.3266 10.7493 79.3576 11.3012 77.6446 12.3472V10.7525H72.3931V35.2596H77.6446V21.6932C77.6446 20.1843 78.244 18.7373 79.3109 17.6703C80.3778 16.6034 81.8249 16.004 83.3337 16.004C84.8426 16.004 86.2896 16.6034 87.3565 17.6703C88.4235 18.7373 89.0228 20.1843 89.0228 21.6932V35.2596H94.2744V21.6932C94.2744 18.7915 93.1217 16.0087 91.0699 13.957C89.0182 11.9052 86.2354 10.7525 83.3337 10.7525Z" fill="#151515"/>
<path d="M120.535 24.5719V10.7525H115.283V12.9407C113.23 11.5116 110.788 10.7478 108.286 10.7525C107.856 10.7527 107.426 10.7752 106.999 10.8199C103.878 11.1486 101.003 12.6618 98.9647 15.0478C96.9268 17.4337 95.8818 20.5106 96.0452 23.6441C96.2086 26.7777 97.5679 29.7292 99.8429 31.8902C102.118 34.0513 105.135 35.2573 108.273 35.2596C108.703 35.2594 109.133 35.2369 109.561 35.1922C112.613 34.8798 115.434 33.4258 117.46 31.1214C119.034 33.227 121.313 34.6959 123.881 35.2596V29.7542C122.884 29.3029 122.039 28.5742 121.445 27.6552C120.852 26.7362 120.536 25.6658 120.535 24.5719ZM113.722 27.4129C113.145 28.1294 112.431 28.7243 111.623 29.1633C110.814 29.6023 109.927 29.8766 109.012 29.9704C108.766 29.9959 108.52 30.0088 108.273 30.0089C106.479 30.0089 104.753 29.3201 103.452 28.0847C102.151 26.8493 101.374 25.1615 101.281 23.3698C101.188 21.578 101.786 19.8189 102.952 18.4555C104.119 17.092 105.764 16.2283 107.548 16.0425C107.794 16.017 108.04 16.0042 108.286 16.004C109.608 16.0052 110.903 16.3805 112.021 17.0867C113.138 17.7929 114.033 18.801 114.602 19.9945C115.17 21.188 115.389 22.5181 115.234 23.8309C115.078 25.1437 114.554 26.3856 113.722 27.4129Z" fill="#151515"/>
<path d="M101.903 37.9192V40.8437C102.395 40.2686 102.982 39.981 103.666 39.981C104.017 39.981 104.333 40.0461 104.615 40.1763C104.898 40.3065 105.109 40.4729 105.25 40.6755C105.395 40.8781 105.493 41.1023 105.543 41.3483C105.598 41.5943 105.625 41.9759 105.625 42.4931V45.8734H104.1V42.8295C104.1 42.2255 104.071 41.842 104.013 41.6793C103.955 41.5165 103.852 41.3881 103.704 41.294C103.559 41.1964 103.377 41.1475 103.156 41.1475C102.903 41.1475 102.677 41.209 102.478 41.332C102.279 41.455 102.132 41.6413 102.038 41.8909C101.948 42.1368 101.903 42.5022 101.903 42.9869V45.8734H100.378V37.9192H101.903Z" fill="#151515"/>
<path d="M110.969 45.8734V45.0107C110.759 45.3182 110.483 45.5605 110.139 45.7377C109.799 45.915 109.439 46.0036 109.059 46.0036C108.672 46.0036 108.325 45.9186 108.017 45.7486C107.71 45.5786 107.488 45.3399 107.35 45.0324C107.213 44.7249 107.144 44.2999 107.144 43.7573V40.1112H108.669V42.759C108.669 43.5692 108.696 44.0666 108.75 44.2511C108.808 44.4319 108.911 44.5766 109.059 44.6851C109.207 44.79 109.396 44.8425 109.623 44.8425C109.884 44.8425 110.117 44.772 110.323 44.6309C110.53 44.4862 110.671 44.309 110.747 44.0992C110.823 43.8857 110.861 43.3667 110.861 42.542V40.1112H112.385V45.8734H110.969Z" fill="#151515"/>
<path d="M113.904 45.8734V37.9192H115.429V40.784C115.899 40.2487 116.456 39.981 117.1 39.981C117.802 39.981 118.382 40.236 118.842 40.746C119.301 41.2524 119.531 41.9813 119.531 42.9326C119.531 43.9165 119.296 44.6743 118.826 45.206C118.359 45.7377 117.791 46.0036 117.122 46.0036C116.793 46.0036 116.467 45.9222 116.145 45.7594C115.827 45.5931 115.552 45.3489 115.321 45.027V45.8734H113.904ZM115.418 42.8675C115.418 43.4643 115.512 43.9056 115.7 44.1914C115.964 44.5965 116.315 44.7991 116.753 44.7991C117.089 44.7991 117.375 44.6562 117.61 44.3704C117.849 44.0811 117.968 43.6271 117.968 43.0086C117.968 42.3502 117.849 41.8764 117.61 41.587C117.371 41.294 117.066 41.1475 116.693 41.1475C116.328 41.1475 116.024 41.2904 115.782 41.5762C115.539 41.8583 115.418 42.2888 115.418 42.8675Z" fill="#151515"/>
</svg>
